# xmcd
#
# Track frame offsets:
#	150
#	15120
#	28980
#	42300
#	58750
#	70192
#	89087
#	107017
#	120000
#	135087
#	149875
#	163137
#	176890
#	197665
#
# Disc length: 2858 seconds
#
# Revision: 1
# Processed by: cddbd v1.5.1PL0 Copyright (c) Steve Scherf et al.
# Submitted via: CDex 1.50Beta5
#
DISCID=c30b280e
DTITLE=Various Artist - Big Hit Parade
DYEAR=1900
DGENRE=
TTITLE0=平田隆夫とセルスターズ/悪魔がにくい
TTITLE1=山本リンダ/こまっちゃうナ
TTITLE2=吉 幾三/俺ら東京さ行くだ
TTITLE3=田中美奈子/涙の太陽
TTITLE4=ザ・ヴィーナス/キッスは目にして!
TTITLE5=間 寛平/ひらけ!チューリップ
TTITLE6=藤井一子/チェック・ポイント
TTITLE7=平田隆夫とセルスターズ/ハチのムサシは死んだのさ
TTITLE8=小川順子/夜の訪問者
TTITLE9=伊藤つかさ/少女人形
TTITLE10=西崎みどり/旅愁
TTITLE11=オナッターズ/恋のバッキン!
TTITLE12=愛川みさ/誰にも云わないで
TTITLE13=山下雄三/荒野の果てに
EXTD=
EXTT0=
EXTT1=
EXTT2=
EXTT3=
EXTT4=
EXTT5=
EXTT6=
EXTT7=
EXTT8=
EXTT9=
EXTT10=
EXTT11=
EXTT12=
EXTT13=
PLAYORDER=
